<svg width="1440" height="771" viewBox="0 0 1440 771" fill="none" xmlns="http://www.w3.org/2000/svg">
<path d="M1440 736.51L1408.5 770.51H1122.5L1088.5 736.51H961.5L928.5 703.51H512L479 736.51H353.5L319.5 770.51H39.5L0 736.51V0H1440V736.51Z" fill="#4D56FF"/>
<path d="M1440 736.51L1408.5 770.51H1122.5L1088.5 736.51H961.5L928.5 703.51H512L479 736.51H353.5L319.5 770.51H39.5L0 736.51V0H1440V736.51Z" fill="url(#paint0_linear_385_1075)" fill-opacity="0.2"/>
<g clip-path="url(#clip0_385_1075)">
<path d="M720.1 735.1L489.68 609.91V358.92L720.1 233.73L950.52 358.92V609.91L720.1 735.1ZM501.69 602.77L720.11 721.44L938.53 602.77V366.06L720.11 247.39L501.69 366.06V602.77Z" fill="white" fill-opacity="0.2"/>
<path d="M678 289.22L720.1 266.34L874.41 350.17L834.63 375.59L678 289.22Z" fill="white" fill-opacity="0.2"/>
<path d="M801.51 394.44L729.51 438.37L613.77 378.47L556.79 410.22V613.56L518.24 592.83V375.59L645.21 307.03L801.51 394.44Z" fill="white" fill-opacity="0.2"/>
<path d="M604.42 407.9L576.35 423.94V535.6L616.79 557.9V534.09L657.02 554.9L657.23 581.71L699.94 606.65V459.82L604.42 407.9ZM656.85 516.33L620.19 496.68V466.82L656.85 487.99V516.34V516.33Z" fill="white" fill-opacity="0.2"/>
<path d="M576.35 569.71V624.4L699.94 691.54V639.45L576.35 569.71Z" fill="white" fill-opacity="0.2"/>
<path d="M749.83 462.94V602.22L859.81 540.61V489.21L791.78 529.27V489.21L859.81 451.04V400.77L749.83 462.94Z" fill="white" fill-opacity="0.2"/>
<path d="M749.83 638.6L921.99 542.78V592.96L749.83 686.19V638.6Z" fill="white" fill-opacity="0.2"/>
<path d="M461.7 485.47H432.25L419.54 472.76H226.22L172.32 418.86V386.41H251.26L263.02 398.17H372.2L383.82 386.55H461.7V485.46V485.47ZM433.91 481.47H457.7V390.56H385.48L373.86 402.18H261.37L249.61 390.42H176.32V417.21L227.87 468.76H421.19L433.9 481.47H433.91Z" fill="white" fill-opacity="0.2"/>
<path d="M243.81 404.41L250.89 411.49L255.58 416.18H379.67L384.36 411.49L391.3 404.55H443.72V467.46H439.73L431.71 459.44L427.02 454.75H233.67L190.32 411.4V404.41H243.8" fill="white" fill-opacity="0.2"/>
<path d="M443.69 541.69H296.99L276.87 521.57H234.72L213.05 499.9L234.55 478.4H418.04L432.36 492.72H461.71V523.67L443.7 541.68L443.69 541.69ZM298.64 537.69H442.03L457.7 522.02V496.73H430.69L416.37 482.41H236.19L218.69 499.91L236.36 517.58H278.51L298.63 537.7L298.64 537.69Z" fill="white" fill-opacity="0.2"/>
<path d="M410.57 496.4L420.21 506.04L424.9 510.73H443.71V516.23L436.24 523.7H304.45L289.02 508.27L284.33 503.58H242.18L238.51 499.91L242.01 496.41H410.59" fill="white" fill-opacity="0.2"/>
<path d="M444.23 596.73H330.79L300.77 566.71L319.54 547.94H447.29L461.77 533.46L461.04 579.91L444.22 596.73H444.23ZM332.45 592.73H442.57L457.07 578.23L457.62 543.27L448.95 551.94H321.2L306.43 566.71L332.45 592.73Z" fill="white" fill-opacity="0.2"/>
<path d="M443.27 566.72L443.17 573.12L436.78 579.51H338.26L326.24 567.49L327.01 566.72H443.27Z" fill="white" fill-opacity="0.2"/>
<path d="M214.45 501.31L181.07 467.93H164V463.93H182.73L217.28 498.48L214.45 501.31Z" fill="white" fill-opacity="0.2"/>
<path d="M302.19 568.13L286.48 552.41H263.76L254 562.18L251.17 559.35L262.1 548.41H288.14L305.02 565.3L302.19 568.13Z" fill="white" fill-opacity="0.2"/>
<path d="M591.71 278.71L577.74 252.78L582.9 235.56L491.19 65.38L513.07 -7.63L541.64 -23.02L579.09 46.47L574.31 62.41L626.1 158.52L641.84 163.24L678.78 231.8L591.71 278.72V278.71ZM582.05 252.34L593.34 273.29L673.37 230.16L639.11 166.59L623.37 161.87L570 62.84L574.78 46.9L540.01 -17.61L516.42 -4.9L495.49 64.94L587.2 235.12L582.04 252.34H582.05Z" fill="white" fill-opacity="0.2"/>
<path d="M559.7 48.44L556.83 58.03L554.93 64.38L558.07 70.21L610.65 167.78L613.79 173.61L620.14 175.51L629.54 178.33L654.41 224.48L599.03 254.33L597.13 250.81L600.39 239.94L602.29 233.59L599.15 227.76L524.38 89.02L510.58 63.41L528.18 4.68L534.34 1.36L559.71 48.44" fill="white" fill-opacity="0.2"/>
<path d="M558.08 296.83L533.68 289.52L464.08 160.38L472.25 133.12L452.25 96.01L461.05 66.65L490.17 75.38L577.22 236.91L571.41 256.31L585.33 282.15L558.08 296.83ZM536.41 286.16L557.64 292.52L579.91 280.52L567.1 256.74L572.91 237.34L487.43 78.73L463.73 71.63L456.56 95.57L476.56 132.68L468.39 159.94L536.41 286.17V286.16Z" fill="white" fill-opacity="0.2"/>
<path d="M557.84 238.88L553.93 251.94L552.03 258.29L555.17 264.12L560.95 274.84L556.11 277.45L545.99 274.42L483.47 158.4L489.73 137.49L491.63 131.14L488.49 125.31L471.64 94.04L473.13 89.06L477.87 90.48L557.84 238.88Z" fill="white" fill-opacity="0.2"/>
<path d="M508.27 322.94L485.48 316.11L431.67 216.25L443.85 175.59L469.28 183.21L529.88 295.67L549.5 301.55L508.26 322.95L508.27 322.94ZM488.22 312.75L507.87 318.64L538.9 302.54L527.15 299.02L466.55 186.56L446.54 180.56L435.98 215.81L488.22 312.75Z" fill="white" fill-opacity="0.2"/>
<path d="M511.44 301.02L505.76 303.97L497.1 301.38L450.36 214.65L455.24 198.37L456.29 198.68L511.44 301.03" fill="white" fill-opacity="0.2"/>
<path d="M464.31 69.71L460.48 68.56L474.03 23.34L465.93 8.31L469.45 6.42L478.33 22.9L464.31 69.71Z" fill="white" fill-opacity="0.2"/>
<path d="M447.11 178.65L443.28 177.5L449.65 156.21L438.88 136.21L425.65 132.25L426.8 128.42L441.61 132.86L453.96 155.77L447.11 178.65Z" fill="white" fill-opacity="0.2"/>
<path d="M847.36 274.73L760.29 227.81L797.23 159.25L812.98 154.53L864.77 58.42L860 42.48L897.44 -27L926.01 -11.61L947.89 61.4L856.18 231.58L861.34 248.8L847.37 274.73H847.36ZM765.71 226.19L845.74 269.32L857.03 248.37L851.87 231.15L943.58 60.97L922.65 -8.87L899.06 -21.58L864.3 42.93L869.07 58.87L815.7 157.9L799.95 162.62L765.69 226.19H765.71Z" fill="white" fill-opacity="0.2"/>
<path d="M879.38 44.47L904.75 -2.61L910.91 0.709999L928.51 59.44L914.71 85.05L839.94 223.79L836.8 229.62L838.7 235.97L841.96 246.84L840.06 250.36L784.68 220.51L809.55 174.36L818.95 171.54L825.3 169.64L828.44 163.81L881.02 66.24L884.16 60.41L882.26 54.06L879.39 44.47" fill="white" fill-opacity="0.2"/>
<path d="M880.99 292.86L853.74 278.18L867.66 252.34L861.85 232.94L862.24 232.21L948.9 71.41L978.02 62.68L986.82 92.04L966.82 129.15L974.99 156.41L905.4 285.55L881 292.86H880.99ZM859.16 276.55L881.43 288.55L902.66 282.19L970.68 155.96L962.51 128.7L982.51 91.59L975.34 67.65L951.64 74.75L866.16 233.36L871.97 252.76L859.16 276.54V276.55Z" fill="white" fill-opacity="0.2"/>
<path d="M881.24 234.91L961.21 86.51L965.95 85.09L967.44 90.07L950.59 121.34L947.45 127.17L949.35 133.52L955.61 154.43L893.09 270.45L882.97 273.48L878.13 270.87L883.91 260.15L887.05 254.32L885.15 247.97L881.24 234.91Z" fill="white" fill-opacity="0.2"/>
<path d="M930.81 318.96L889.57 297.56L909.19 291.68L969.79 179.22L995.22 171.6L1007.4 212.26L953.59 312.12L930.8 318.95L930.81 318.96ZM900.18 298.57L931.21 314.67L950.86 308.78L1003.1 211.84L992.54 176.59L972.53 182.59L911.93 295.05L900.18 298.57Z" fill="white" fill-opacity="0.2"/>
<path d="M927.63 297.05L982.78 194.7L983.83 194.39L988.71 210.67L941.97 297.4L933.31 299.99L927.63 297.04" fill="white" fill-opacity="0.2"/>
<path d="M974.77 65.74L960.74 18.93L969.62 2.44L973.15 4.34L965.05 19.37L978.6 64.59L974.77 65.74Z" fill="white" fill-opacity="0.2"/>
<path d="M991.97 174.68L985.11 151.8L997.46 128.89L1012.27 124.45L1013.42 128.28L1000.2 132.24L989.42 152.24L995.8 173.53L991.97 174.68Z" fill="white" fill-opacity="0.2"/>
<path d="M1007.96 485.47H978.51V386.56H1056.39L1068.01 398.18H1177.19L1188.95 386.42H1267.89V418.87L1213.99 472.77H1020.67L1007.96 485.48V485.47ZM982.51 481.47H1006.3L1019.01 468.76H1212.33L1263.88 417.21V390.42H1190.6L1178.84 402.18H1066.35L1054.73 390.56H982.51V481.47Z" fill="white" fill-opacity="0.2"/>
<path d="M1196.4 404.41H1249.88V411.4L1206.53 454.75H1177.44H1019.83H1013.2L1008.51 459.44L1000.49 467.46H996.5V404.55H1048.92L1055.86 411.49L1060.55 416.18H1067.18H1178.01H1184.64L1189.33 411.49L1196.41 404.41" fill="white" fill-opacity="0.2"/>
<path d="M1143.22 541.69H996.52L978.51 523.68V492.73H1007.86L1022.18 478.41H1205.67L1227.17 499.91L1205.5 521.58H1163.35L1143.23 541.7L1143.22 541.69ZM998.18 537.69H1141.57L1161.69 517.57H1203.84L1221.51 499.9L1204.01 482.4H1023.83L1009.51 496.72H982.5V522.01L998.17 537.68L998.18 537.69Z" fill="white" fill-opacity="0.2"/>
<path d="M1029.64 496.4H1198.22L1201.72 499.9L1198.05 503.57H1162.52H1155.89L1151.2 508.26L1135.77 523.69H1003.98L996.51 516.22V510.72H1008.69H1015.32L1020.01 506.03L1029.65 496.39" fill="white" fill-opacity="0.2"/>
<path d="M1109.42 596.73H995.98L979.16 579.91L978.43 533.46L992.91 547.94H1120.66L1139.43 566.71L1109.41 596.73H1109.42ZM997.64 592.73H1107.76L1133.78 566.71L1119.01 551.94H991.26L982.59 543.27L983.14 578.23L997.64 592.73Z" fill="white" fill-opacity="0.2"/>
<path d="M996.94 566.72H1113.2L1113.97 567.49L1101.95 579.51H1003.43L997.04 573.12L996.94 566.72Z" fill="white" fill-opacity="0.2"/>
<path d="M1225.76 501.31L1222.93 498.48L1257.48 463.93H1276.21V467.93H1259.14L1225.76 501.31Z" fill="white" fill-opacity="0.2"/>
<path d="M1138.02 568.13L1135.19 565.3L1152.07 548.41H1178.11L1189.04 559.35L1186.21 562.18L1176.45 552.41H1153.73L1138.02 568.13Z" fill="white" fill-opacity="0.2"/>
</g>
<g filter="url(#filter0_d_385_1075)">
<path d="M511.086 96.49L478.086 63.49L351.086 63.49L317.086 29.49L31.9365 29.49L0.733401 63.1697L-0.999997 65.0408L-0.999991 -2.00024L1441 -2.00011L1441 64.6708L1439.35 63.2479L1400.13 29.4901L1120.91 29.4901L1086.91 63.4901L961.414 63.4901L928.414 96.4901L511.086 96.49Z" stroke="#FFCD03" stroke-width="2" shape-rendering="crispEdges"/>
</g>
<path d="M101.5 77.5V109.5" stroke="#FFCD03" stroke-width="2"/>
<path d="M118 93.495L86 93.495" stroke="#FFCD03" stroke-width="2"/>
<path d="M1340.5 77.5V109.5" stroke="#FFCD03" stroke-width="2"/>
<path d="M1357 93.495L1325 93.495" stroke="#FFCD03" stroke-width="2"/>
<path d="M101.5 672V704" stroke="#FFCD03" stroke-width="2"/>
<path d="M118 687.995L86 687.995" stroke="#FFCD03" stroke-width="2"/>
<path d="M1340.5 672V704" stroke="#FFCD03" stroke-width="2"/>
<path d="M1357 687.995L1325 687.995" stroke="#FFCD03" stroke-width="2"/>
<g filter="url(#filter1_d_385_1075)">
<path d="M474 443H1158" stroke="#FFCD03" stroke-width="2"/>
</g>
<g filter="url(#filter2_d_385_1075)">
<path d="M57 304.968L-1 247V553L57 495.032V304.968Z" stroke="#FFCD03" stroke-width="2" shape-rendering="crispEdges"/>
</g>
<g filter="url(#filter3_d_385_1075)">
<path d="M1383 495.032L1441 553L1441 247L1383 304.968L1383 495.032Z" stroke="#FFCD03" stroke-width="2" shape-rendering="crispEdges"/>
</g>
<rect x="176" y="507" width="12" height="12" fill="#FFCD03"/>
<rect x="194" y="507" width="12" height="12" fill="#FFCD03"/>
<rect x="176" y="261" width="12" height="12" fill="#FFCD03"/>
<rect x="194" y="261" width="12" height="12" fill="#FFCD03"/>
<rect x="1230" y="507" width="12" height="12" fill="#FFCD03"/>
<rect x="1248" y="507" width="12" height="12" fill="#FFCD03"/>
<rect x="1230" y="261" width="12" height="12" fill="#FFCD03"/>
<rect x="1248" y="261" width="12" height="12" fill="#FFCD03"/>
<defs>
<filter id="filter0_d_385_1075" x="-22" y="-23" width="1484" height="140.49" filterUnits="userSpaceOnUse" color-interpolation-filters="sRGB">
<feFlood flood-opacity="0" result="BackgroundImageFix"/>
<feColorMatrix in="SourceAlpha" type="matrix" values="0 0 0 0 0 0 0 0 0 0 0 0 0 0 0 0 0 0 127 0" result="hardAlpha"/>
<feOffset/>
<feGaussianBlur stdDeviation="10"/>
<feComposite in2="hardAlpha" operator="out"/>
<feColorMatrix type="matrix" values="0 0 0 0 1 0 0 0 0 0.803922 0 0 0 0 0.0117647 0 0 0 0.5 0"/>
<feBlend mode="normal" in2="BackgroundImageFix" result="effect1_dropShadow_385_1075"/>
<feBlend mode="normal" in="SourceGraphic" in2="effect1_dropShadow_385_1075" result="shape"/>
</filter>
<filter id="filter1_d_385_1075" x="454" y="422" width="724" height="42" filterUnits="userSpaceOnUse" color-interpolation-filters="sRGB">
<feFlood flood-opacity="0" result="BackgroundImageFix"/>
<feColorMatrix in="SourceAlpha" type="matrix" values="0 0 0 0 0 0 0 0 0 0 0 0 0 0 0 0 0 0 127 0" result="hardAlpha"/>
<feOffset/>
<feGaussianBlur stdDeviation="10"/>
<feComposite in2="hardAlpha" operator="out"/>
<feColorMatrix type="matrix" values="0 0 0 0 1 0 0 0 0 1 0 0 0 0 1 0 0 0 0.25 0"/>
<feBlend mode="normal" in2="BackgroundImageFix" result="effect1_dropShadow_385_1075"/>
<feBlend mode="normal" in="SourceGraphic" in2="effect1_dropShadow_385_1075" result="shape"/>
</filter>
<filter id="filter2_d_385_1075" x="-22" y="224.587" width="100" height="350.827" filterUnits="userSpaceOnUse" color-interpolation-filters="sRGB">
<feFlood flood-opacity="0" result="BackgroundImageFix"/>
<feColorMatrix in="SourceAlpha" type="matrix" values="0 0 0 0 0 0 0 0 0 0 0 0 0 0 0 0 0 0 127 0" result="hardAlpha"/>
<feOffset/>
<feGaussianBlur stdDeviation="10"/>
<feComposite in2="hardAlpha" operator="out"/>
<feColorMatrix type="matrix" values="0 0 0 0 1 0 0 0 0 0.803922 0 0 0 0 0.0117647 0 0 0 0.5 0"/>
<feBlend mode="normal" in2="BackgroundImageFix" result="effect1_dropShadow_385_1075"/>
<feBlend mode="normal" in="SourceGraphic" in2="effect1_dropShadow_385_1075" result="shape"/>
</filter>
<filter id="filter3_d_385_1075" x="1362" y="224.587" width="100" height="350.827" filterUnits="userSpaceOnUse" color-interpolation-filters="sRGB">
<feFlood flood-opacity="0" result="BackgroundImageFix"/>
<feColorMatrix in="SourceAlpha" type="matrix" values="0 0 0 0 0 0 0 0 0 0 0 0 0 0 0 0 0 0 127 0" result="hardAlpha"/>
<feOffset/>
<feGaussianBlur stdDeviation="10"/>
<feComposite in2="hardAlpha" operator="out"/>
<feColorMatrix type="matrix" values="0 0 0 0 1 0 0 0 0 0.803922 0 0 0 0 0.0117647 0 0 0 0.5 0"/>
<feBlend mode="normal" in2="BackgroundImageFix" result="effect1_dropShadow_385_1075"/>
<feBlend mode="normal" in="SourceGraphic" in2="effect1_dropShadow_385_1075" result="shape"/>
</filter>
<linearGradient id="paint0_linear_385_1075" x1="720" y1="0" x2="720" y2="770.51" gradientUnits="userSpaceOnUse">
<stop stop-opacity="0"/>
<stop offset="1" stop-color="#04072F"/>
</linearGradient>
<clipPath id="clip0_385_1075">
<rect width="1112" height="731" fill="white" transform="translate(164 -27)"/>
</clipPath>
</defs>
</svg>
