<svg width="32" height="32" viewBox="0 0 32 32" fill="none" xmlns="http://www.w3.org/2000/svg">
<path d="M27.2432 0C29.8593 0 32 2.14049 32 4.75684V27.2432C32 29.8591 29.8593 32 27.2432 32H4.75684C2.14068 32 0 29.8591 0 27.2432V4.75684C0 2.14049 2.14068 0 4.75684 0H27.2432ZM7.10156 12.7891V24.8887H10.7041V12.7891H7.10156ZM19.8242 12.6553C18.4005 12.6553 17.1545 13.3668 16.3984 14.4785V12.7891H12.8398V24.8887H16.3984V18.3496C16.4425 16.9702 17.6003 15.9023 18.9785 15.9023C20.3579 15.9025 21.2929 16.9703 21.3369 18.3496V24.8887H24.8945V16.748C24.8945 14.5243 23.0703 12.6554 20.8018 12.6553H19.8242ZM8.88086 6.65039C7.67953 6.65044 6.74512 7.62854 6.74512 8.83008C6.74513 10.031 7.67954 11.0097 8.88086 11.0098C10.0807 11.0098 11.0596 10.0311 11.0596 8.83008C11.0596 7.62851 10.0807 6.65039 8.88086 6.65039Z" fill="white"/>
</svg>
