<svg width="143" height="156" viewBox="0 0 143 156" fill="none" xmlns="http://www.w3.org/2000/svg">
<g clip-path="url(#clip0_137_112)">
<path d="M71.5 156L0 117.047V38.9533L71.5 0L143 38.9533V117.05L71.5 156.003V156ZM3.72363 114.828L71.5 151.753L139.276 114.828V41.175L71.5 4.25036L3.72363 41.1719V114.825V114.828Z" fill="white"/>
<path d="M58.4331 17.2628L71.5 10.1436L119.38 36.2276L107.039 44.1371L58.4331 17.2628Z" fill="white"/>
<path d="M96.7617 50.0024L74.4199 63.6745L38.5024 45.0333L20.8213 54.9124V118.182L8.85913 111.732V44.1371L48.2583 22.8044L96.7617 50.0024Z" fill="white"/>
<path d="M35.6041 54.1936L26.8939 59.1845V93.9279L39.4426 100.867V93.4581L51.9261 99.9332L51.9912 108.275L65.2443 116.035V70.3487L35.6041 54.1936ZM51.8733 87.9289L40.4976 81.8147V72.5237L51.8733 79.1108V87.932V87.9289Z" fill="white"/>
<path d="M26.8909 104.542V121.555L65.2412 142.449V126.238L26.8909 104.542Z" fill="white"/>
<path d="M80.7222 71.3163V114.654L114.852 95.4868V79.4904L93.7425 91.9583V79.4904L114.852 67.6136V51.9719L80.7222 71.3163Z" fill="white"/>
<path d="M80.7222 125.974L134.144 96.1621V111.776L80.7222 140.782V125.974Z" fill="white"/>
</g>
<defs>
<clipPath id="clip0_137_112">
<rect width="143" height="156" fill="white"/>
</clipPath>
</defs>
</svg>
