<svg width="1417" height="123" viewBox="0 0 1417 123" fill="none" xmlns="http://www.w3.org/2000/svg">
<g filter="url(#filter0_d_437_1108)">
<path d="M460.5 57.5H335.414C335.149 57.5 334.895 57.6054 334.707 57.7929L291.293 101.207C291.105 101.395 290.851 101.5 290.586 101.5H20" stroke="#FFCD03" stroke-width="2"/>
</g>
<g filter="url(#filter1_d_437_1108)">
<path d="M956 57.5H1081.09C1081.35 57.5 1081.61 57.6054 1081.79 57.7929L1125.21 101.207C1125.39 101.395 1125.65 101.5 1125.91 101.5H1396.5" stroke="#FFCD03" stroke-width="2"/>
</g>
<g filter="url(#filter2_d_437_1108)">
<path d="M758.271 45L657.729 45C656.96 45 656.479 44.1678 656.863 43.5012L669.524 21.5012C669.703 21.1911 670.033 21 670.391 21L745.609 21C745.967 21 746.297 21.1911 746.476 21.5012L759.137 43.5012C759.521 44.1679 759.04 45 758.271 45Z" stroke="#FFCD03" stroke-width="2" shape-rendering="crispEdges"/>
</g>
<g filter="url(#filter3_d_437_1108)">
<path d="M756.729 21L857.271 21C858.04 21 858.521 21.8321 858.137 22.4988L845.476 44.4988C845.297 44.8089 844.967 45 844.609 45L769.391 45C769.033 45 768.703 44.8089 768.524 44.4988L755.863 22.4988C755.479 21.8321 755.96 21 756.729 21Z" stroke="#FFCD03" stroke-width="2" shape-rendering="crispEdges"/>
</g>
<g filter="url(#filter4_d_437_1108)">
<path d="M559.729 21L660.271 21C661.04 21 661.521 21.8321 661.137 22.4988L648.476 44.4988C648.297 44.8089 647.967 45 647.609 45L572.391 45C572.033 45 571.703 44.8089 571.524 44.4988L558.863 22.4988C558.479 21.8321 558.96 21 559.729 21Z" stroke="#FFCD03" stroke-width="2" shape-rendering="crispEdges"/>
</g>
<defs>
<filter id="filter0_d_437_1108" x="0" y="36.5" width="480.5" height="86" filterUnits="userSpaceOnUse" color-interpolation-filters="sRGB">
<feFlood flood-opacity="0" result="BackgroundImageFix"/>
<feColorMatrix in="SourceAlpha" type="matrix" values="0 0 0 0 0 0 0 0 0 0 0 0 0 0 0 0 0 0 127 0" result="hardAlpha"/>
<feOffset/>
<feGaussianBlur stdDeviation="10"/>
<feComposite in2="hardAlpha" operator="out"/>
<feColorMatrix type="matrix" values="0 0 0 0 1 0 0 0 0 0.803922 0 0 0 0 0.0117647 0 0 0 0.5 0"/>
<feBlend mode="normal" in2="BackgroundImageFix" result="effect1_dropShadow_437_1108"/>
<feBlend mode="normal" in="SourceGraphic" in2="effect1_dropShadow_437_1108" result="shape"/>
</filter>
<filter id="filter1_d_437_1108" x="936" y="36.5" width="480.5" height="86" filterUnits="userSpaceOnUse" color-interpolation-filters="sRGB">
<feFlood flood-opacity="0" result="BackgroundImageFix"/>
<feColorMatrix in="SourceAlpha" type="matrix" values="0 0 0 0 0 0 0 0 0 0 0 0 0 0 0 0 0 0 127 0" result="hardAlpha"/>
<feOffset/>
<feGaussianBlur stdDeviation="10"/>
<feComposite in2="hardAlpha" operator="out"/>
<feColorMatrix type="matrix" values="0 0 0 0 1 0 0 0 0 0.803922 0 0 0 0 0.0117647 0 0 0 0.5 0"/>
<feBlend mode="normal" in2="BackgroundImageFix" result="effect1_dropShadow_437_1108"/>
<feBlend mode="normal" in="SourceGraphic" in2="effect1_dropShadow_437_1108" result="shape"/>
</filter>
<filter id="filter2_d_437_1108" x="635.726" y="0" width="144.547" height="66" filterUnits="userSpaceOnUse" color-interpolation-filters="sRGB">
<feFlood flood-opacity="0" result="BackgroundImageFix"/>
<feColorMatrix in="SourceAlpha" type="matrix" values="0 0 0 0 0 0 0 0 0 0 0 0 0 0 0 0 0 0 127 0" result="hardAlpha"/>
<feOffset/>
<feGaussianBlur stdDeviation="10"/>
<feComposite in2="hardAlpha" operator="out"/>
<feColorMatrix type="matrix" values="0 0 0 0 1 0 0 0 0 0.803922 0 0 0 0 0.0117647 0 0 0 0.5 0"/>
<feBlend mode="normal" in2="BackgroundImageFix" result="effect1_dropShadow_437_1108"/>
<feBlend mode="normal" in="SourceGraphic" in2="effect1_dropShadow_437_1108" result="shape"/>
</filter>
<filter id="filter3_d_437_1108" x="734.726" y="0" width="144.547" height="66" filterUnits="userSpaceOnUse" color-interpolation-filters="sRGB">
<feFlood flood-opacity="0" result="BackgroundImageFix"/>
<feColorMatrix in="SourceAlpha" type="matrix" values="0 0 0 0 0 0 0 0 0 0 0 0 0 0 0 0 0 0 127 0" result="hardAlpha"/>
<feOffset/>
<feGaussianBlur stdDeviation="10"/>
<feComposite in2="hardAlpha" operator="out"/>
<feColorMatrix type="matrix" values="0 0 0 0 1 0 0 0 0 0.803922 0 0 0 0 0.0117647 0 0 0 0.5 0"/>
<feBlend mode="normal" in2="BackgroundImageFix" result="effect1_dropShadow_437_1108"/>
<feBlend mode="normal" in="SourceGraphic" in2="effect1_dropShadow_437_1108" result="shape"/>
</filter>
<filter id="filter4_d_437_1108" x="537.726" y="0" width="144.547" height="66" filterUnits="userSpaceOnUse" color-interpolation-filters="sRGB">
<feFlood flood-opacity="0" result="BackgroundImageFix"/>
<feColorMatrix in="SourceAlpha" type="matrix" values="0 0 0 0 0 0 0 0 0 0 0 0 0 0 0 0 0 0 127 0" result="hardAlpha"/>
<feOffset/>
<feGaussianBlur stdDeviation="10"/>
<feComposite in2="hardAlpha" operator="out"/>
<feColorMatrix type="matrix" values="0 0 0 0 1 0 0 0 0 0.803922 0 0 0 0 0.0117647 0 0 0 0.5 0"/>
<feBlend mode="normal" in2="BackgroundImageFix" result="effect1_dropShadow_437_1108"/>
<feBlend mode="normal" in="SourceGraphic" in2="effect1_dropShadow_437_1108" result="shape"/>
</filter>
</defs>
</svg>
